<?xml version="1.0" standalone="no"?><!DOCTYPE svg PUBLIC "-//W3C//DTD SVG 1.1//EN" "http://www.w3.org/Graphics/SVG/1.1/DTD/svg11.dtd"><svg t="1571031886731" class="icon" viewBox="0 0 1024 1024" version="1.1" xmlns="http://www.w3.org/2000/svg" p-id="2530" xmlns:xlink="http://www.w3.org/1999/xlink" width="200" height="200"><path d="M637.93202568 936.60855309H370.09205728c-61.4905679 0-111.20083753-49.83972347-111.20083753-111.20083754 0-61.4905679 49.83972347-111.20083753 111.20083753-111.20083752h267.8399684c61.4905679 0 111.20083753 49.83972347 111.20083752 111.20083752 0 61.36111408-49.83972347 111.20083753-111.20083752 111.20083754z" fill="#eeeeee" ></path><path d="M503.94731457 507.33966222c122.07495902 0 221.36604445-99.29108543 221.36604445-221.36604444s-99.29108543-221.49549827-221.36604445-221.49549828-221.36604445 99.29108543-221.36604444 221.36604445 99.29108543 221.49549827 221.36604444 221.49549827z m0-395.48144197c95.92528592 0 173.9859437 78.06065778 173.9859437 173.9859437 0 95.92528592-78.06065778 173.9859437-173.9859437 173.9859437-95.92528592 0-173.9859437-78.06065778-173.98594371-173.9859437 0-95.92528592 78.06065778-173.9859437 173.98594371-173.9859437zM715.47486815 554.71976297H292.54921481c-111.84810667 0-202.85414717 91.0060405-202.85414717 202.85414716S180.70110815 960.42805728 292.54921481 960.42805728h422.92565334c111.84810667 0 202.85414717-91.0060405 202.85414715-202.85414715S827.19352098 554.71976297 715.47486815 554.71976297zM633.01278024 602.22931753l-129.06546567 129.06546567-129.06546569-129.06546567H633.01278024z m82.46208791 310.68918519H292.54921481c-85.69843358 0-155.34459259-69.64615902-155.34459259-155.34459259s69.64615902-155.34459259 155.34459259-155.3445926h15.27555161l179.42300444 179.42300444c4.66033778 4.66033778 10.74466765 6.99050667 16.82899753 6.99050667s12.16865975-2.33016889 16.82899753-6.99050667L700.32877036 602.22931753h15.27555161c85.69843358 0 155.34459259 69.64615902 155.3445926 155.3445926s-69.90506667 155.34459259-155.47404642 155.34459259z" fill="#666666" ></path></svg>