<?xml version="1.0" standalone="no"?><!DOCTYPE svg PUBLIC "-//W3C//DTD SVG 1.1//EN" "http://www.w3.org/Graphics/SVG/1.1/DTD/svg11.dtd"><svg t="1571031886731" class="icon" viewBox="0 0 1024 1024" version="1.1" xmlns="http://www.w3.org/2000/svg" p-id="2530" xmlns:xlink="http://www.w3.org/1999/xlink" width="200" height="200"><path d="M678.61857462 705.36265634m-128.09989573 0a128.09989572 128.09989572 0 1 0 256.19979145 0 128.09989572 128.09989572 0 1 0-256.19979145 0Z" fill="#eeeeee" ></path><path d="M382.81757385 463.6728081H168.33194195c-41.14328357 0-74.61646848-33.47318491-74.61646847-74.61646848V174.57189261c0-41.14328357 33.47318491-74.61646848 74.61646847-74.61646929h214.48444703c41.14328357 0 74.61646848 33.47318491 74.6164693 74.61646929v214.48444702c0.00118405 41.14328357-33.47200003 74.61646848-74.61528443 74.61646847zM168.33194195 154.43728943c-11.10245718 0-20.13460235 9.03214599-20.13460235 20.13460318v214.48444701c0 11.10245718 9.03214599 20.13460235 20.13460236 20.13460237h214.48444702c11.10245718 0 20.13460235-9.03214599 20.13460318-20.13460237V174.57189261c0-11.10245718-9.03214599-20.13460235-20.13460319-20.13460318H168.33194195zM822.22566754 463.6728081H607.74003565c-41.14328357 0-74.61646848-33.47318491-74.61646848-74.61646848V174.57189261c0-41.14328357 33.47318491-74.61646848 74.61646848-74.61646929h214.4856319c41.14328357 0 74.61646848 33.47318491 74.61646847 74.61646929v214.48444702c0 41.14328357-33.47200003 74.61646848-74.61646847 74.61646847zM607.74003565 154.43728943c-11.10245718 0-20.13460235 9.03214599-20.13460236 20.13460318v214.48444701c0 11.10245718 9.03214599 20.13460235 20.13460236 20.13460237h214.4856319c11.10245718 0 20.13460235-9.03214599 20.13460235-20.13460237V174.57189261c0-11.10245718-9.03214599-20.13460235-20.13460235-20.13460318H607.74003565zM382.81757385 919.66233943H168.33194195c-41.14328357 0-74.61646848-33.47318491-74.61646847-74.61646848V630.56023904c0-41.14328357 33.47318491-74.61646848 74.61646847-74.61646846h214.48444703c41.14328357 0 74.61646848 33.47318491 74.6164693 74.61646846v214.48563191c0.00118405 41.14328357-33.47200003 74.61646848-74.61528443 74.61646847zM168.33194195 610.42563669c-11.10245718 0-20.13460235 9.03214599-20.13460235 20.13460235v214.48563191c0 11.10245718 9.03214599 20.13460235 20.13460236 20.13460234h214.48444702c11.10245718 0 20.13460235-9.03214599 20.13460318-20.13460234V630.56023904c0-11.10245718-9.03214599-20.13460235-20.13460319-20.13460235H168.33194195zM711.05897244 923.21550415c-103.54278681 0-187.7812262-84.23844022-187.7812262-187.7812262s84.23844022-187.7812262 187.7812262-187.78122619 187.78004214 84.23844022 187.78004214 187.78122619-84.23725535 187.7812262-187.78004214 187.7812262z m0-321.08058628c-73.50195959 0-133.29936008 59.79740131-133.29936007 133.29936008s59.79740131 133.29936008 133.29936007 133.29936008c73.50077472 0 133.29817602-59.79740131 133.29817603-133.29936008s-59.79858535-133.29936008-133.29817603-133.29936008z" fill="#666666" ></path><path d="M897.9080856 910.18723209a27.13789132 27.13789132 0 0 1-18.29287903-7.06369208l-50.92870056-46.19114731c-11.14272564-10.10638641-11.98364199-27.33449991-1.87607154-38.47841043 10.10638641-11.14391052 27.33449991-11.98482605 38.47841044-1.8760707l50.92870056 46.1911473c11.14272564 10.10638641 11.98364199 27.33449991 1.87607153 38.47840961-5.37593912 5.92786368-12.76770657 8.93976362-20.1855314 8.93976361z" fill="#666666" ></path></svg>