<?xml version="1.0" standalone="no"?><!DOCTYPE svg PUBLIC "-//W3C//DTD SVG 1.1//EN" "http://www.w3.org/Graphics/SVG/1.1/DTD/svg11.dtd"><svg t="1571031886731" class="icon" viewBox="0 0 1024 1024" version="1.1" xmlns="http://www.w3.org/2000/svg" p-id="2530" xmlns:xlink="http://www.w3.org/1999/xlink" width="200" height="200"><path d="M727.2730843 709.80479051H370.60189971l-46.81050389-260.56466331c-3.59018613-17.26051028 9.52780169-33.27826384 27.06448013-33.27826383h396.16323214c17.53667845 0 30.65466627 16.15583763 27.06448012 33.27826383l-46.81050391 260.56466331z" fill="#eeeeee" ></path><path d="M962.1541083 276.9111925c-14.22266047-17.26051028-35.07335691-27.20256421-57.44297822-27.20256422h-738.74984033l-7.73270861-40.87288837c-7.45654045-37.42078631-40.45863612-64.62335052-78.70792692-64.62335052h-42.25372919c-13.67032415 0-24.71705073 11.04672658-24.71705072 24.71705075 0 13.67032415 11.04672658 24.71705073 24.71705072 24.71705072h42.25372919c14.49882864 0 27.20256421 10.35630617 29.96424587 24.44088257l90.99741022 479.70410193c-0.13808409 0.8285045-0.13808409 1.65700898-0.13808407 2.48551347 0 4.14252247 0.96658859 7.87079269 2.76168164 11.32289475l15.6035013 82.16002898c6.62803595 35.07335691 37.42078631 60.48082805 73.04647956 60.48082803h35.34952505v25.54555525c0 39.49204754 32.17359118 71.66563872 71.66563872 71.66563871h11.04672658c39.49204754 0 71.66563872-32.17359118 71.66563871-71.66563871v-25.54555525H623.84810667v25.54555525c0 39.49204754 32.17359118 71.66563872 71.66563872 71.66563871h11.04672658c39.49204754 0 71.66563872-32.17359118 71.66563871-71.66563871v-25.54555525h35.21144099c35.34952507 0 66.00419135-25.13130297 72.90839546-59.79040761L977.61952553 338.63477728c4.28060655-21.95536909-1.24275675-44.32499042-15.46541723-61.72358478zM432.04931635 880.062464c0 12.15139925-9.94205392 22.09345317-22.09345317 22.09345317h-11.04672659c-12.15139925 0-22.09345317-9.94205392-22.09345318-22.09345317v-25.54555524h55.37171702v25.54555524z m296.88077695 0c0 12.15139925-9.94205392 22.09345317-22.09345316 22.09345317h-11.04672659c-12.15139925 0-22.09345317-9.94205392-22.09345317-22.09345317v-25.54555524h55.37171701v25.54555524zM929.01392857 328.96889153l-90.99741026 456.09172384c-2.3474294 11.59906291-12.56565149 19.88410785-24.30279847 19.88410786h-521.9578311c-11.87523108 0-22.09345317-8.5612131-24.3027985-20.16027603l-11.32289475-59.51423947H735.69621333c13.67032415 0 24.71705073-11.04672658 24.71705073-24.71705073s-11.04672658-24.71705073-24.71705073-24.71705073H246.7404779l-71.38947055-376.41720835h729.36012273c7.45654045 0 14.49882864 3.31401797 19.19368743 9.11354943 4.69485881 5.66144737 6.48995186 13.11798782 5.10911106 20.43644418z" fill="#666666" ></path></svg>