<?xml version="1.0" standalone="no"?><!DOCTYPE svg PUBLIC "-//W3C//DTD SVG 1.1//EN" "http://www.w3.org/Graphics/SVG/1.1/DTD/svg11.dtd"><svg t="1571031886731" class="icon" viewBox="0 0 1024 1024" version="1.1" xmlns="http://www.w3.org/2000/svg" p-id="2530" xmlns:xlink="http://www.w3.org/1999/xlink" width="200" height="200"><path d="M613.62988459 938.20892602H410.37011541c-13.67032415 0-24.71705073-11.04672658-24.71705072-24.71705073V641.0519809c0-27.3406483 22.09345317-49.43410147 49.43410146-49.43410147h153.8256677c27.3406483 0 49.43410147 22.09345317 49.43410146 49.43410147v272.43989439c0 13.67032415-11.04672658 24.71705073-24.71705072 24.71705073z" fill="#00c050" ></path><path d="M973.33891897 443.03940687L603.54974657 105.97616196c-52.19578311-47.5009243-130.90371003-47.5009243-183.09949314 0L50.52299694 443.03940687c-10.08013802 9.25163351-10.77055842 24.85513482-1.65700899 34.93527282 4.83294288 5.3852792 11.59906291 8.00887677 18.22709887 8.00887678 5.93761554 0 11.87523108-2.07126124 16.57008987-6.48995187l64.62335051-58.82381906v406.24337015c0 74.97965669 61.03316438 135.87473698 135.87473699 135.87473698h455.40130346c74.97965669 0 135.87473698-61.03316438 135.87473698-135.87473698V420.66978554l64.62335051 58.82381906c10.08013802 9.25163351 25.68363931 8.42312903 34.93527283-1.65700898 9.25163351-9.94205392 8.42312903-25.68363931-1.657009-34.79718875zM410.37011541 913.49187529V641.0519809c0-13.67032415 11.04672658-24.71705073 24.71705074-24.71705073h153.8256677c13.67032415 0 24.71705073 11.04672658 24.71705074 24.71705073v272.43989439H410.37011541z m415.77117184-86.5787196c0 47.63900839-38.80162713 86.44063553-86.44063554 86.44063551h-76.63666567V641.0519809c0-40.87288835-33.27826384-74.15115219-74.15115219-74.1511522H435.08716615c-40.87288835 0-74.15115219 33.27826384-74.15115219 74.1511522v272.43989439h-76.63666567c-47.63900839 0-86.44063553-38.80162713-86.44063554-86.44063554V375.65437471l255.86980452-233.22401502c33.14017975-30.24041403 83.26470163-30.24041403 116.54296546 0l255.86980452 233.08593094v451.39686506z" fill="#044236" ></path><path d="M618.0485752 468.5849621h85.19787878c13.67032415 0 24.71705073-11.04672658 24.71705076-24.71705073s-11.04672658-24.71705073-24.71705076-24.71705074h-85.19787878c-13.67032415 0-24.71705073 11.04672658-24.71705073 24.71705074s11.04672658 24.71705073 24.71705073 24.71705073z" fill="#044236" ></path></svg>