<?xml version="1.0" standalone="no"?><!DOCTYPE svg PUBLIC "-//W3C//DTD SVG 1.1//EN" "http://www.w3.org/Graphics/SVG/1.1/DTD/svg11.dtd"><svg t="1571031886731" class="icon" viewBox="0 0 1024 1024" version="1.1" xmlns="http://www.w3.org/2000/svg" p-id="2530" xmlns:xlink="http://www.w3.org/1999/xlink" width="200" height="200"><path d="M613.62988459 938.20892602H410.37011541c-13.67032415 0-24.71705073-11.04672658-24.71705072-24.71705073V641.0519809c0-27.3406483 22.09345317-49.43410147 49.43410146-49.43410147h153.8256677c27.3406483 0 49.43410147 22.09345317 49.43410146 49.43410147v272.43989439c0 13.67032415-11.04672658 24.71705073-24.71705072 24.71705073z" fill="#eeeeee" ></path><path d="M973.33891897 443.03940687L603.54974657 105.97616196c-52.19578311-47.5009243-130.90371003-47.5009243-183.09949314 0L50.52299694 443.03940687c-10.08013802 9.25163351-10.77055842 24.85513482-1.65700899 34.93527282 4.83294288 5.3852792 11.59906291 8.00887677 18.22709887 8.00887678 5.93761554 0 11.87523108-2.07126124 16.57008987-6.48995187l64.62335051-58.82381906v406.24337015c0 74.97965669 61.03316438 135.87473698 135.87473699 135.87473698h455.40130346c74.97965669 0 135.87473698-61.03316438 135.87473698-135.87473698V420.66978554l64.62335051 58.82381906c10.08013802 9.25163351 25.68363931 8.42312903 34.93527283-1.65700898 9.25163351-9.94205392 8.42312903-25.68363931-1.657009-34.79718875zM410.37011541 913.49187529V641.0519809c0-13.67032415 11.04672658-24.71705073 24.71705074-24.71705073h153.8256677c13.67032415 0 24.71705073 11.04672658 24.71705074 24.71705073v272.43989439H410.37011541z m415.77117184-86.5787196c0 47.63900839-38.80162713 86.44063553-86.44063554 86.44063551h-76.63666567V641.0519809c0-40.87288835-33.27826384-74.15115219-74.15115219-74.1511522H435.08716615c-40.87288835 0-74.15115219 33.27826384-74.15115219 74.1511522v272.43989439h-76.63666567c-47.63900839 0-86.44063553-38.80162713-86.44063554-86.44063554V375.65437471l255.86980452-233.22401502c33.14017975-30.24041403 83.26470163-30.24041403 116.54296546 0l255.86980452 233.08593094v451.39686506z" fill="#666666" ></path><path d="M618.0485752 468.5849621h85.19787878c13.67032415 0 24.71705073-11.04672658 24.71705076-24.71705073s-11.04672658-24.71705073-24.71705076-24.71705074h-85.19787878c-13.67032415 0-24.71705073 11.04672658-24.71705073 24.71705074s11.04672658 24.71705073 24.71705073 24.71705073z" fill="#666666" ></path></symbol><symbol id="icon-gouwuche2-copy" viewBox="0 0 1024 1024"><path d="M727.2730843 709.80479051H370.60189971l-46.81050389-260.56466331c-3.59018613-17.26051028 9.52780169-33.27826384 27.06448013-33.27826383h396.16323214c17.53667845 0 30.65466627 16.15583763 27.06448012 33.27826383l-46.81050391 260.56466331z" fill="#eeeeee" ></path><path d="M962.1541083 276.9111925c-14.22266047-17.26051028-35.07335691-27.20256421-57.44297822-27.20256422h-738.74984033l-7.73270861-40.87288837c-7.45654045-37.42078631-40.45863612-64.62335052-78.70792692-64.62335052h-42.25372919c-13.67032415 0-24.71705073 11.04672658-24.71705072 24.71705075 0 13.67032415 11.04672658 24.71705073 24.71705072 24.71705072h42.25372919c14.49882864 0 27.20256421 10.35630617 29.96424587 24.44088257l90.99741022 479.70410193c-0.13808409 0.8285045-0.13808409 1.65700898-0.13808407 2.48551347 0 4.14252247 0.96658859 7.87079269 2.76168164 11.32289475l15.6035013 82.16002898c6.62803595 35.07335691 37.42078631 60.48082805 73.04647956 60.48082803h35.34952505v25.54555525c0 39.49204754 32.17359118 71.66563872 71.66563872 71.66563871h11.04672658c39.49204754 0 71.66563872-32.17359118 71.66563871-71.66563871v-25.54555525H623.84810667v25.54555525c0 39.49204754 32.17359118 71.66563872 71.66563872 71.66563871h11.04672658c39.49204754 0 71.66563872-32.17359118 71.66563871-71.66563871v-25.54555525h35.21144099c35.34952507 0 66.00419135-25.13130297 72.90839546-59.79040761L977.61952553 338.63477728c4.28060655-21.95536909-1.24275675-44.32499042-15.46541723-61.72358478zM432.04931635 880.062464c0 12.15139925-9.94205392 22.09345317-22.09345317 22.09345317h-11.04672659c-12.15139925 0-22.09345317-9.94205392-22.09345318-22.09345317v-25.54555524h55.37171702v25.54555524z m296.88077695 0c0 12.15139925-9.94205392 22.09345317-22.09345316 22.09345317h-11.04672659c-12.15139925 0-22.09345317-9.94205392-22.09345317-22.09345317v-25.54555524h55.37171701v25.54555524zM929.01392857 328.96889153l-90.99741026 456.09172384c-2.3474294 11.59906291-12.56565149 19.88410785-24.30279847 19.88410786h-521.9578311c-11.87523108 0-22.09345317-8.5612131-24.3027985-20.16027603l-11.32289475-59.51423947H735.69621333c13.67032415 0 24.71705073-11.04672658 24.71705073-24.71705073s-11.04672658-24.71705073-24.71705073-24.71705073H246.7404779l-71.38947055-376.41720835h729.36012273c7.45654045 0 14.49882864 3.31401797 19.19368743 9.11354943 4.69485881 5.66144737 6.48995186 13.11798782 5.10911106 20.43644418z" fill="#666666" ></path></svg>